<svg xmlns="http://www.w3.org/2000/svg" viewBox="0 0 100 100" fill="currentColor"><path d="M50.0 42.0 L58.0 50.0 L50.0 58.0 L42.0 50.0 Z"/><path d="M49.1 50.2 L51.6 51.8 L54.1 53.2 L56.7 54.3 L59.3 55.2 L62.0 55.8 L64.6 56.2 L67.1 56.3 L69.6 56.3 L72.1 56.0 L74.4 55.6 L76.7 54.9 L78.8 54.1 L80.8 53.1 L82.7 52.0 L84.5 50.7 L86.0 49.4 L87.5 47.9 L88.7 46.3 L89.8 44.7 L90.8 43.1 L91.5 41.4 L92.2 39.6 L92.6 37.9 L92.9 36.2 L93.0 34.5 L93.0 32.8 L92.9 31.2 L92.6 29.6 L92.2 28.1 L91.7 26.7 L91.0 25.4 L90.3 24.1 L89.5 23.0 L88.6 21.9 L87.6 20.9 L86.6 20.1 L85.6 19.3 L84.5 18.7 L83.4 18.2 L82.2 17.8 L81.1 17.4 L79.9 17.2 L78.8 17.1 L77.7 17.1 L76.6 17.2 L75.6 17.4 L74.6 17.6 L73.7 18.0 L72.8 18.4 L71.9 18.8 L71.2 19.4 L70.5 20.0 L69.8 20.6 L69.2 21.2 L68.7 21.9 L68.3 22.6 L68.0 23.4 L67.7 24.1 L67.5 24.9 L67.3 25.6 L67.2 26.4 L67.2 27.1 L67.3 27.8 L67.4 28.5 L67.5 29.1 L67.7 29.8 L68.0 30.4 L68.3 30.9 L68.6 31.4 L69.0 31.9 L69.4 32.3 L69.8 32.7 L70.3 33.0 L70.8 33.3 L71.2 33.6 L71.7 33.8 L72.2 33.9 L72.7 34.0 L73.2 34.1 L73.7 34.1 L74.4 31.2 L74.2 31.2 L74.0 31.2 L73.7 31.2 L73.5 31.2 L73.3 31.1 L73.1 31.0 L72.8 30.9 L72.6 30.7 L72.4 30.6 L72.2 30.4 L72.0 30.1 L71.8 29.9 L71.7 29.6 L71.5 29.4 L71.4 29.1 L71.3 28.7 L71.2 28.4 L71.2 28.1 L71.2 27.7 L71.2 27.3 L71.2 26.9 L71.3 26.6 L71.4 26.2 L71.6 25.8 L71.8 25.4 L72.0 25.0 L72.3 24.7 L72.6 24.3 L73.0 24.0 L73.4 23.7 L73.8 23.4 L74.3 23.2 L74.8 22.9 L75.3 22.8 L75.9 22.6 L76.5 22.6 L77.1 22.5 L77.7 22.5 L78.4 22.6 L79.0 22.8 L79.7 23.0 L80.3 23.2 L81.0 23.5 L81.6 23.9 L82.2 24.4 L82.8 24.9 L83.4 25.5 L83.9 26.2 L84.4 26.9 L84.8 27.7 L85.2 28.5 L85.5 29.4 L85.7 30.3 L85.9 31.3 L86.0 32.3 L85.9 33.4 L85.8 34.5 L85.6 35.6 L85.3 36.7 L84.9 37.8 L84.4 38.9 L83.7 40.0 L83.0 41.0 L82.1 42.1 L81.1 43.0 L80.0 43.9 L78.8 44.7 L77.5 45.5 L76.1 46.1 L74.6 46.6 L73.1 47.0 L71.4 47.3 L69.7 47.5 L67.9 47.5 L66.1 47.3 L64.3 47.0 L62.4 46.4 L60.5 45.8 L58.7 44.9 L56.9 43.8 Z"/><path d="M78.5 32.7 L78.4 33.7 L78.1 34.6 L77.6 35.5 L76.8 36.2 L76.0 36.7 L75.0 37.1 L74.0 37.2 L73.0 37.1 L72.1 36.7 L71.2 36.2 L70.5 35.5 L70.0 34.6 L69.6 33.7 L69.5 32.7 L69.6 31.7 L70.0 30.7 L70.5 29.9 L71.2 29.2 L72.1 28.6 L73.0 28.3 L74.0 28.2 L75.0 28.3 L76.0 28.6 L76.8 29.2 L77.6 29.9 L78.1 30.7 L78.4 31.7 Z"/><path d="M54.0 42.0 L54.1 42.9 L54.1 43.8 L54.1 44.7 L54.2 45.7 L54.2 46.6 L54.3 47.5 L54.4 48.3 L54.5 49.1 L54.6 49.9 L54.8 50.7 L54.9 51.4 L55.2 52.0 L55.4 52.6 L55.7 53.2 L56.0 53.7 L56.3 54.1 L56.7 54.5 L57.1 54.8 L57.6 55.0 L58.1 55.2 L58.6 55.3 L59.2 55.4 L59.8 55.4 L60.5 55.4 L61.2 55.3 L61.9 55.1 L62.6 54.9 L63.4 54.7 L64.2 54.4 L65.0 54.1 L65.8 53.8 L66.6 53.4 L67.5 53.1 L68.3 52.7 L69.2 52.3 L70.0 52.0 L70.0 52.0 L69.4 51.9 L68.9 51.8 L68.3 51.7 L67.8 51.6 L67.2 51.5 L66.7 51.3 L66.2 51.2 L65.7 51.0 L65.1 50.9 L64.6 50.7 L64.1 50.5 L63.7 50.3 L63.2 50.1 L62.7 49.8 L62.2 49.6 L61.8 49.4 L61.3 49.1 L60.9 48.8 L60.4 48.5 L60.0 48.3 L59.6 47.9 L59.1 47.6 L58.7 47.3 L58.3 47.0 L57.9 46.6 L57.5 46.2 L57.1 45.9 L56.8 45.5 L56.4 45.1 L56.0 44.7 L55.7 44.3 L55.3 43.8 L55.0 43.4 L54.6 43.0 L54.3 42.5 L54.0 42.0 Z"/><path d="M49.8 49.1 L48.2 51.6 L46.8 54.1 L45.7 56.7 L44.8 59.3 L44.2 62.0 L43.8 64.6 L43.7 67.1 L43.7 69.6 L44.0 72.1 L44.4 74.4 L45.1 76.7 L45.9 78.8 L46.9 80.8 L48.0 82.7 L49.3 84.5 L50.6 86.0 L52.1 87.5 L53.7 88.7 L55.3 89.8 L56.9 90.8 L58.6 91.5 L60.4 92.2 L62.1 92.6 L63.8 92.9 L65.5 93.0 L67.2 93.0 L68.8 92.9 L70.4 92.6 L71.9 92.2 L73.3 91.7 L74.6 91.0 L75.9 90.3 L77.0 89.5 L78.1 88.6 L79.1 87.6 L79.9 86.6 L80.7 85.6 L81.3 84.5 L81.8 83.4 L82.2 82.2 L82.6 81.1 L82.8 79.9 L82.9 78.8 L82.9 77.7 L82.8 76.6 L82.6 75.6 L82.4 74.6 L82.0 73.7 L81.6 72.8 L81.2 71.9 L80.6 71.2 L80.0 70.5 L79.4 69.8 L78.8 69.2 L78.1 68.7 L77.4 68.3 L76.6 68.0 L75.9 67.7 L75.1 67.5 L74.4 67.3 L73.6 67.2 L72.9 67.2 L72.2 67.3 L71.5 67.4 L70.9 67.5 L70.2 67.7 L69.6 68.0 L69.1 68.3 L68.6 68.6 L68.1 69.0 L67.7 69.4 L67.3 69.8 L67.0 70.3 L66.7 70.8 L66.4 71.2 L66.2 71.7 L66.1 72.2 L66.0 72.7 L65.9 73.2 L65.9 73.7 L68.8 74.4 L68.8 74.2 L68.8 74.0 L68.8 73.7 L68.8 73.5 L68.9 73.3 L69.0 73.1 L69.1 72.8 L69.3 72.6 L69.4 72.4 L69.6 72.2 L69.9 72.0 L70.1 71.8 L70.4 71.7 L70.6 71.5 L70.9 71.4 L71.3 71.3 L71.6 71.2 L71.9 71.2 L72.3 71.2 L72.7 71.2 L73.1 71.2 L73.4 71.3 L73.8 71.4 L74.2 71.6 L74.6 71.8 L75.0 72.0 L75.3 72.3 L75.7 72.6 L76.0 73.0 L76.3 73.4 L76.6 73.8 L76.8 74.3 L77.1 74.8 L77.2 75.3 L77.4 75.9 L77.4 76.5 L77.5 77.1 L77.5 77.7 L77.4 78.4 L77.2 79.0 L77.0 79.7 L76.8 80.3 L76.5 81.0 L76.1 81.6 L75.6 82.2 L75.1 82.8 L74.5 83.4 L73.8 83.9 L73.1 84.4 L72.3 84.8 L71.5 85.2 L70.6 85.5 L69.7 85.7 L68.7 85.9 L67.7 86.0 L66.6 85.9 L65.5 85.8 L64.4 85.6 L63.3 85.3 L62.2 84.9 L61.1 84.4 L60.0 83.7 L59.0 83.0 L57.9 82.1 L57.0 81.1 L56.1 80.0 L55.3 78.8 L54.5 77.5 L53.9 76.1 L53.4 74.6 L53.0 73.1 L52.7 71.4 L52.5 69.7 L52.5 67.9 L52.7 66.1 L53.0 64.3 L53.6 62.4 L54.2 60.5 L55.1 58.7 L56.2 56.9 Z"/><path d="M67.3 78.5 L66.3 78.4 L65.4 78.1 L64.5 77.6 L63.8 76.8 L63.3 76.0 L62.9 75.0 L62.8 74.0 L62.9 73.0 L63.3 72.1 L63.8 71.2 L64.5 70.5 L65.4 70.0 L66.3 69.6 L67.3 69.5 L68.3 69.6 L69.3 70.0 L70.1 70.5 L70.8 71.2 L71.4 72.1 L71.7 73.0 L71.8 74.0 L71.7 75.0 L71.4 76.0 L70.8 76.8 L70.1 77.6 L69.3 78.1 L68.3 78.4 Z"/><path d="M58.0 54.0 L57.1 54.1 L56.2 54.1 L55.3 54.1 L54.3 54.2 L53.4 54.2 L52.5 54.3 L51.7 54.4 L50.9 54.5 L50.1 54.6 L49.3 54.8 L48.6 54.9 L48.0 55.2 L47.4 55.4 L46.8 55.7 L46.3 56.0 L45.9 56.3 L45.5 56.7 L45.2 57.1 L45.0 57.6 L44.8 58.1 L44.7 58.6 L44.6 59.2 L44.6 59.8 L44.6 60.5 L44.7 61.2 L44.9 61.9 L45.1 62.6 L45.3 63.4 L45.6 64.2 L45.9 65.0 L46.2 65.8 L46.6 66.6 L46.9 67.5 L47.3 68.3 L47.7 69.2 L48.0 70.0 L48.0 70.0 L48.1 69.4 L48.2 68.9 L48.3 68.3 L48.4 67.8 L48.5 67.2 L48.7 66.7 L48.8 66.2 L49.0 65.7 L49.1 65.1 L49.3 64.6 L49.5 64.1 L49.7 63.7 L49.9 63.2 L50.2 62.7 L50.4 62.2 L50.6 61.8 L50.9 61.3 L51.2 60.9 L51.5 60.4 L51.7 60.0 L52.1 59.6 L52.4 59.1 L52.7 58.7 L53.0 58.3 L53.4 57.9 L53.8 57.5 L54.1 57.1 L54.5 56.8 L54.9 56.4 L55.3 56.0 L55.7 55.7 L56.2 55.3 L56.6 55.0 L57.0 54.6 L57.5 54.3 L58.0 54.0 Z"/><path d="M50.9 49.8 L48.4 48.2 L45.9 46.8 L43.3 45.7 L40.7 44.8 L38.0 44.2 L35.4 43.8 L32.9 43.7 L30.4 43.7 L27.9 44.0 L25.6 44.4 L23.3 45.1 L21.2 45.9 L19.2 46.9 L17.3 48.0 L15.5 49.3 L14.0 50.6 L12.5 52.1 L11.3 53.7 L10.2 55.3 L9.2 56.9 L8.5 58.6 L7.8 60.4 L7.4 62.1 L7.1 63.8 L7.0 65.5 L7.0 67.2 L7.1 68.8 L7.4 70.4 L7.8 71.9 L8.3 73.3 L9.0 74.6 L9.7 75.9 L10.5 77.0 L11.4 78.1 L12.4 79.1 L13.4 79.9 L14.4 80.7 L15.5 81.3 L16.6 81.8 L17.8 82.2 L18.9 82.6 L20.1 82.8 L21.2 82.9 L22.3 82.9 L23.4 82.8 L24.4 82.6 L25.4 82.4 L26.3 82.0 L27.2 81.6 L28.1 81.2 L28.8 80.6 L29.5 80.0 L30.2 79.4 L30.8 78.8 L31.3 78.1 L31.7 77.4 L32.0 76.6 L32.3 75.9 L32.5 75.1 L32.7 74.4 L32.8 73.6 L32.8 72.9 L32.7 72.2 L32.6 71.5 L32.5 70.9 L32.3 70.2 L32.0 69.6 L31.7 69.1 L31.4 68.6 L31.0 68.1 L30.6 67.7 L30.2 67.3 L29.7 67.0 L29.2 66.7 L28.8 66.4 L28.3 66.2 L27.8 66.1 L27.3 66.0 L26.8 65.9 L26.3 65.9 L25.6 68.8 L25.8 68.8 L26.0 68.8 L26.3 68.8 L26.5 68.8 L26.7 68.9 L26.9 69.0 L27.2 69.1 L27.4 69.3 L27.6 69.4 L27.8 69.6 L28.0 69.9 L28.2 70.1 L28.3 70.4 L28.5 70.6 L28.6 70.9 L28.7 71.3 L28.8 71.6 L28.8 71.9 L28.8 72.3 L28.8 72.7 L28.8 73.1 L28.7 73.4 L28.6 73.8 L28.4 74.2 L28.2 74.6 L28.0 75.0 L27.7 75.3 L27.4 75.7 L27.0 76.0 L26.6 76.3 L26.2 76.6 L25.7 76.8 L25.2 77.1 L24.7 77.2 L24.1 77.4 L23.5 77.4 L22.9 77.5 L22.3 77.5 L21.6 77.4 L21.0 77.2 L20.3 77.0 L19.7 76.8 L19.0 76.5 L18.4 76.1 L17.8 75.6 L17.2 75.1 L16.6 74.5 L16.1 73.8 L15.6 73.1 L15.2 72.3 L14.8 71.5 L14.5 70.6 L14.3 69.7 L14.1 68.7 L14.0 67.7 L14.1 66.6 L14.2 65.5 L14.4 64.4 L14.7 63.3 L15.1 62.2 L15.6 61.1 L16.3 60.0 L17.0 59.0 L17.9 57.9 L18.9 57.0 L20.0 56.1 L21.2 55.3 L22.5 54.5 L23.9 53.9 L25.4 53.4 L26.9 53.0 L28.6 52.7 L30.3 52.5 L32.1 52.5 L33.9 52.7 L35.7 53.0 L37.6 53.6 L39.5 54.2 L41.3 55.1 L43.1 56.2 Z"/><path d="M21.5 67.3 L21.6 66.3 L21.9 65.4 L22.4 64.5 L23.2 63.8 L24.0 63.3 L25.0 62.9 L26.0 62.8 L27.0 62.9 L27.9 63.3 L28.8 63.8 L29.5 64.5 L30.0 65.4 L30.4 66.3 L30.5 67.3 L30.4 68.3 L30.0 69.3 L29.5 70.1 L28.8 70.8 L27.9 71.4 L27.0 71.7 L26.0 71.8 L25.0 71.7 L24.0 71.4 L23.2 70.8 L22.4 70.1 L21.9 69.3 L21.6 68.3 Z"/><path d="M46.0 58.0 L45.9 57.1 L45.9 56.2 L45.9 55.3 L45.8 54.3 L45.8 53.4 L45.7 52.5 L45.6 51.7 L45.5 50.9 L45.4 50.1 L45.2 49.3 L45.1 48.6 L44.8 48.0 L44.6 47.4 L44.3 46.8 L44.0 46.3 L43.7 45.9 L43.3 45.5 L42.9 45.2 L42.4 45.0 L41.9 44.8 L41.4 44.7 L40.8 44.6 L40.2 44.6 L39.5 44.6 L38.8 44.7 L38.1 44.9 L37.4 45.1 L36.6 45.3 L35.8 45.6 L35.0 45.9 L34.2 46.2 L33.4 46.6 L32.5 46.9 L31.7 47.3 L30.8 47.7 L30.0 48.0 L30.0 48.0 L30.6 48.1 L31.1 48.2 L31.7 48.3 L32.2 48.4 L32.8 48.5 L33.3 48.7 L33.8 48.8 L34.3 49.0 L34.9 49.1 L35.4 49.3 L35.9 49.5 L36.3 49.7 L36.8 49.9 L37.3 50.2 L37.8 50.4 L38.2 50.6 L38.7 50.9 L39.1 51.2 L39.6 51.5 L40.0 51.7 L40.4 52.1 L40.9 52.4 L41.3 52.7 L41.7 53.0 L42.1 53.4 L42.5 53.8 L42.9 54.1 L43.2 54.5 L43.6 54.9 L44.0 55.3 L44.3 55.7 L44.7 56.2 L45.0 56.6 L45.4 57.0 L45.7 57.5 L46.0 58.0 Z"/><path d="M50.2 50.9 L51.8 48.4 L53.2 45.9 L54.3 43.3 L55.2 40.7 L55.8 38.0 L56.2 35.4 L56.3 32.9 L56.3 30.4 L56.0 27.9 L55.6 25.6 L54.9 23.3 L54.1 21.2 L53.1 19.2 L52.0 17.3 L50.7 15.5 L49.4 14.0 L47.9 12.5 L46.3 11.3 L44.7 10.2 L43.1 9.2 L41.4 8.5 L39.6 7.8 L37.9 7.4 L36.2 7.1 L34.5 7.0 L32.8 7.0 L31.2 7.1 L29.6 7.4 L28.1 7.8 L26.7 8.3 L25.4 9.0 L24.1 9.7 L23.0 10.5 L21.9 11.4 L20.9 12.4 L20.1 13.4 L19.3 14.4 L18.7 15.5 L18.2 16.6 L17.8 17.8 L17.4 18.9 L17.2 20.1 L17.1 21.2 L17.1 22.3 L17.2 23.4 L17.4 24.4 L17.6 25.4 L18.0 26.3 L18.4 27.2 L18.8 28.1 L19.4 28.8 L20.0 29.5 L20.6 30.2 L21.2 30.8 L21.9 31.3 L22.6 31.7 L23.4 32.0 L24.1 32.3 L24.9 32.5 L25.6 32.7 L26.4 32.8 L27.1 32.8 L27.8 32.7 L28.5 32.6 L29.1 32.5 L29.8 32.3 L30.4 32.0 L30.9 31.7 L31.4 31.4 L31.9 31.0 L32.3 30.6 L32.7 30.2 L33.0 29.7 L33.3 29.2 L33.6 28.8 L33.8 28.3 L33.9 27.8 L34.0 27.3 L34.1 26.8 L34.1 26.3 L31.2 25.6 L31.2 25.8 L31.2 26.0 L31.2 26.3 L31.2 26.5 L31.1 26.7 L31.0 26.9 L30.9 27.2 L30.7 27.4 L30.6 27.6 L30.4 27.8 L30.1 28.0 L29.9 28.2 L29.6 28.3 L29.4 28.5 L29.1 28.6 L28.7 28.7 L28.4 28.8 L28.1 28.8 L27.7 28.8 L27.3 28.8 L26.9 28.8 L26.6 28.7 L26.2 28.6 L25.8 28.4 L25.4 28.2 L25.0 28.0 L24.7 27.7 L24.3 27.4 L24.0 27.0 L23.7 26.6 L23.4 26.2 L23.2 25.7 L22.9 25.2 L22.8 24.7 L22.6 24.1 L22.6 23.5 L22.5 22.9 L22.5 22.3 L22.6 21.6 L22.8 21.0 L23.0 20.3 L23.2 19.7 L23.5 19.0 L23.9 18.4 L24.4 17.8 L24.9 17.2 L25.5 16.6 L26.2 16.1 L26.9 15.6 L27.7 15.2 L28.5 14.8 L29.4 14.5 L30.3 14.3 L31.3 14.1 L32.3 14.0 L33.4 14.1 L34.5 14.2 L35.6 14.4 L36.7 14.7 L37.8 15.1 L38.9 15.6 L40.0 16.3 L41.0 17.0 L42.1 17.9 L43.0 18.9 L43.9 20.0 L44.7 21.2 L45.5 22.5 L46.1 23.9 L46.6 25.4 L47.0 26.9 L47.3 28.6 L47.5 30.3 L47.5 32.1 L47.3 33.9 L47.0 35.7 L46.4 37.6 L45.8 39.5 L44.9 41.3 L43.8 43.1 Z"/><path d="M32.7 21.5 L33.7 21.6 L34.6 21.9 L35.5 22.4 L36.2 23.2 L36.7 24.0 L37.1 25.0 L37.2 26.0 L37.1 27.0 L36.7 27.9 L36.2 28.8 L35.5 29.5 L34.6 30.0 L33.7 30.4 L32.7 30.5 L31.7 30.4 L30.7 30.0 L29.9 29.5 L29.2 28.8 L28.6 27.9 L28.3 27.0 L28.2 26.0 L28.3 25.0 L28.6 24.0 L29.2 23.2 L29.9 22.4 L30.7 21.9 L31.7 21.6 Z"/><path d="M42.0 46.0 L42.9 45.9 L43.8 45.9 L44.7 45.9 L45.7 45.8 L46.6 45.8 L47.5 45.7 L48.3 45.6 L49.1 45.5 L49.9 45.4 L50.7 45.2 L51.4 45.1 L52.0 44.8 L52.6 44.6 L53.2 44.3 L53.7 44.0 L54.1 43.7 L54.5 43.3 L54.8 42.9 L55.0 42.4 L55.2 41.9 L55.3 41.4 L55.4 40.8 L55.4 40.2 L55.4 39.5 L55.3 38.8 L55.1 38.1 L54.9 37.4 L54.7 36.6 L54.4 35.8 L54.1 35.0 L53.8 34.2 L53.4 33.4 L53.1 32.5 L52.7 31.7 L52.3 30.8 L52.0 30.0 L52.0 30.0 L51.9 30.6 L51.8 31.1 L51.7 31.7 L51.6 32.2 L51.5 32.8 L51.3 33.3 L51.2 33.8 L51.0 34.3 L50.9 34.9 L50.7 35.4 L50.5 35.9 L50.3 36.3 L50.1 36.8 L49.8 37.3 L49.6 37.8 L49.4 38.2 L49.1 38.7 L48.8 39.1 L48.5 39.6 L48.3 40.0 L47.9 40.4 L47.6 40.9 L47.3 41.3 L47.0 41.7 L46.6 42.1 L46.2 42.5 L45.9 42.9 L45.5 43.2 L45.1 43.6 L44.7 44.0 L44.3 44.3 L43.8 44.7 L43.4 45.0 L43.0 45.4 L42.5 45.7 L42.0 46.0 Z"/></svg>